<svg xmlns="http://www.w3.org/2000/svg" version="1.1" viewBox="0.00 0.00 300.00 300.00" width="300.00" height="300.00">
<g stroke-width="2.00" fill="none" stroke-linecap="butt">
<path stroke="#afeffe" d="&#10;  M 149.48 15.06&#10;  Q 138.48 22.04 127.68 29.42&#10;  Q 124.92 31.31 124.98 35.50&#10;  Q 125.51 70.09 125.39 150.08"/>
<path stroke="#83ddfd" d="&#10;  M 125.39 150.08&#10;  L 125.56 228.22"/>
<path stroke="#83bcf1" d="&#10;  M 125.56 228.22&#10;  Q 117.71 222.94 110.44 217.81&#10;  Q 107.79 215.93 105.45 213.73"/>
<path stroke="#83ddfd" d="&#10;  M 105.45 213.73&#10;  C 104.28 211.82 104.65 206.59 104.65 204.25&#10;  Q 104.77 170.70 104.85 137.87"/>
<path stroke="#afeffe" d="&#10;  M 104.85 137.87&#10;  Q 105.00 110.07 105.03 83.00&#10;  Q 105.06 64.24 104.57 45.50&#10;  A 0.95 0.95 0.0 0 0 103.10 44.73&#10;  C 82.78 57.98 63.33 70.74 39.05 85.44&#10;  C 37.46 86.40 34.46 87.74 32.44 89.47"/>
<path stroke="#83ddfd" d="&#10;  M 32.44 89.47&#10;  Q 32.17 89.32 31.97 89.37&#10;  Q 31.63 89.46 31.63 89.81&#10;  Q 31.67 155.11 31.64 211.86&#10;  A 0.91 0.88 -74.3 0 0 32.05 212.62&#10;  L 104.61 259.36"/>
<path stroke="#83bcf1" d="&#10;  M 104.61 259.36&#10;  Q 104.93 259.59 105.20 259.41&#10;  Q 115.14 252.54 125.23 245.89"/>
<path stroke="#83ddfd" d="&#10;  M 125.23 245.89&#10;  Q 125.32 246.01 125.39 246.10&#10;  A 0.79 0.71 29.9 0 1 125.53 246.53&#10;  L 125.92 273.90&#10;  A 3.39 3.38 -74.1 0 0 127.47 276.69&#10;  L 148.54 290.28&#10;  A 2.48 2.48 0.0 0 0 151.14 290.34&#10;  Q 153.08 289.21 156.21 287.19&#10;  Q 169.63 278.56 198.55 258.62&#10;  C 222.52 242.09 241.64 229.35 267.24 212.24&#10;  Q 267.50 212.07 267.83 211.43"/>
<path stroke="#83bcf1" d="&#10;  M 267.83 211.43&#10;  Q 268.11 210.59 268.11 209.62&#10;  Q 268.11 151.44 268.02 93.25&#10;  Q 268.02 91.86 267.35 90.88"/>
<path stroke="#83ddfd" d="&#10;  M 267.35 90.88&#10;  Q 209.37 53.05 150.73 15.04&#10;  Q 149.77 14.42 149.48 15.06"/>
<path stroke="#079aef" d="&#10;  M 267.35 90.88&#10;  Q 225.44 116.06 184.91 143.92&#10;  Q 179.49 147.65 174.06 150.96&#10;  A 0.47 0.47 0.0 0 0 174.05 151.76&#10;  L 267.83 211.43"/>
<path stroke="#079aef" d="&#10;  M 125.23 245.89&#10;  L 125.56 228.22"/>
<path stroke="#32cdfc" d="&#10;  M 125.39 150.08&#10;  L 148.95 165.43&#10;  A 0.88 0.88 0.0 0 1 149.35 166.17&#10;  L 149.35 288.23&#10;  A 0.14 0.13 90.0 0 0 149.48 288.37&#10;  L 149.80 288.37&#10;  A 0.41 0.41 0.0 0 0 150.21 287.96&#10;  L 150.21 166.36&#10;  A 0.85 0.83 -16.5 0 1 150.61 165.65&#10;  L 173.17 151.89&#10;  A 0.54 0.54 0.0 0 0 173.19 150.98&#10;  L 151.12 136.09&#10;  A 2.57 2.57 0.0 0 1 149.99 134.00&#10;  Q 149.84 121.05 149.78 65.20&#10;  C 149.76 51.28 150.17 32.65 149.86 16.38&#10;  Q 149.84 15.62 149.48 15.06"/>
<path stroke="#079aef" d="&#10;  M 105.45 213.73&#10;  Q 105.27 213.70 105.09 213.89&#10;  A 0.37 0.35 67.3 0 0 105.00 214.13&#10;  L 104.61 259.36"/>
<path stroke="#32cdfc" d="&#10;  M 104.85 137.87&#10;  L 32.44 89.47"/>
</g>
<path fill="#ffffff" d="&#10;  M 300.00 0.00&#10;  L 300.00 300.00&#10;  L 0.00 300.00&#10;  L 0.00 0.00&#10;  L 300.00 0.00&#10;  Z&#10;  M 149.48 15.06&#10;  Q 138.48 22.04 127.68 29.42&#10;  Q 124.92 31.31 124.98 35.50&#10;  Q 125.51 70.09 125.39 150.08&#10;  L 125.56 228.22&#10;  Q 117.71 222.94 110.44 217.81&#10;  Q 107.79 215.93 105.45 213.73&#10;  C 104.28 211.82 104.65 206.59 104.65 204.25&#10;  Q 104.77 170.70 104.85 137.87&#10;  Q 105.00 110.07 105.03 83.00&#10;  Q 105.06 64.24 104.57 45.50&#10;  A 0.95 0.95 0.0 0 0 103.10 44.73&#10;  C 82.78 57.98 63.33 70.74 39.05 85.44&#10;  C 37.46 86.40 34.46 87.74 32.44 89.47&#10;  Q 32.17 89.32 31.97 89.37&#10;  Q 31.63 89.46 31.63 89.81&#10;  Q 31.67 155.11 31.64 211.86&#10;  A 0.91 0.88 -74.3 0 0 32.05 212.62&#10;  L 104.61 259.36&#10;  Q 104.93 259.59 105.20 259.41&#10;  Q 115.14 252.54 125.23 245.89&#10;  Q 125.32 246.01 125.39 246.10&#10;  A 0.79 0.71 29.9 0 1 125.53 246.53&#10;  L 125.92 273.90&#10;  A 3.39 3.38 -74.1 0 0 127.47 276.69&#10;  L 148.54 290.28&#10;  A 2.48 2.48 0.0 0 0 151.14 290.34&#10;  Q 153.08 289.21 156.21 287.19&#10;  Q 169.63 278.56 198.55 258.62&#10;  C 222.52 242.09 241.64 229.35 267.24 212.24&#10;  Q 267.50 212.07 267.83 211.43&#10;  Q 268.11 210.59 268.11 209.62&#10;  Q 268.11 151.44 268.02 93.25&#10;  Q 268.02 91.86 267.35 90.88&#10;  Q 209.37 53.05 150.73 15.04&#10;  Q 149.77 14.42 149.48 15.06&#10;  Z"/>
<path fill="#06bafb" d="&#10;  M 267.35 90.88&#10;  Q 225.44 116.06 184.91 143.92&#10;  Q 179.49 147.65 174.06 150.96&#10;  A 0.47 0.47 0.0 0 0 174.05 151.76&#10;  L 267.83 211.43&#10;  Q 267.50 212.07 267.24 212.24&#10;  C 241.64 229.35 222.52 242.09 198.55 258.62&#10;  Q 169.63 278.56 156.21 287.19&#10;  Q 153.08 289.21 151.14 290.34&#10;  A 2.48 2.48 0.0 0 1 148.54 290.28&#10;  L 127.47 276.69&#10;  A 3.39 3.38 -74.1 0 1 125.92 273.90&#10;  L 125.53 246.53&#10;  A 0.79 0.71 29.9 0 0 125.39 246.10&#10;  Q 125.32 246.01 125.23 245.89&#10;  L 125.56 228.22&#10;  L 125.39 150.08&#10;  L 148.95 165.43&#10;  A 0.88 0.88 0.0 0 1 149.35 166.17&#10;  L 149.35 288.23&#10;  A 0.14 0.13 90.0 0 0 149.48 288.37&#10;  L 149.80 288.37&#10;  A 0.41 0.41 0.0 0 0 150.21 287.96&#10;  L 150.21 166.36&#10;  A 0.85 0.83 -16.5 0 1 150.61 165.65&#10;  L 173.17 151.89&#10;  A 0.54 0.54 0.0 0 0 173.19 150.98&#10;  L 151.12 136.09&#10;  A 2.57 2.57 0.0 0 1 149.99 134.00&#10;  Q 149.84 121.05 149.78 65.20&#10;  C 149.76 51.28 150.17 32.65 149.86 16.38&#10;  Q 149.84 15.62 149.48 15.06&#10;  Q 149.77 14.42 150.73 15.04&#10;  Q 209.37 53.05 267.35 90.88&#10;  Z"/>
<path fill="#5edffc" d="&#10;  M 149.48 15.06&#10;  Q 149.84 15.62 149.86 16.38&#10;  C 150.17 32.65 149.76 51.28 149.78 65.20&#10;  Q 149.84 121.05 149.99 134.00&#10;  A 2.57 2.57 0.0 0 0 151.12 136.09&#10;  L 173.19 150.98&#10;  A 0.54 0.54 0.0 0 1 173.17 151.89&#10;  L 150.61 165.65&#10;  A 0.85 0.83 -16.5 0 0 150.21 166.36&#10;  L 150.21 287.96&#10;  A 0.41 0.41 0.0 0 1 149.80 288.37&#10;  L 149.48 288.37&#10;  A 0.14 0.13 -90.0 0 1 149.35 288.23&#10;  L 149.35 166.17&#10;  A 0.88 0.88 0.0 0 0 148.95 165.43&#10;  L 125.39 150.08&#10;  Q 125.51 70.09 124.98 35.50&#10;  Q 124.92 31.31 127.68 29.42&#10;  Q 138.48 22.04 149.48 15.06&#10;  Z"/>
<path fill="#5edffc" d="&#10;  M 104.85 137.87&#10;  L 32.44 89.47&#10;  C 34.46 87.74 37.46 86.40 39.05 85.44&#10;  C 63.33 70.74 82.78 57.98 103.10 44.73&#10;  A 0.95 0.95 0.0 0 1 104.57 45.50&#10;  Q 105.06 64.24 105.03 83.00&#10;  Q 105.00 110.07 104.85 137.87&#10;  Z"/>
<path fill="#06bafb" d="&#10;  M 32.44 89.47&#10;  L 104.85 137.87&#10;  Q 104.77 170.70 104.65 204.25&#10;  C 104.65 206.59 104.28 211.82 105.45 213.73&#10;  Q 105.27 213.70 105.09 213.89&#10;  A 0.37 0.35 67.3 0 0 105.00 214.13&#10;  L 104.61 259.36&#10;  L 32.05 212.62&#10;  A 0.91 0.88 -74.3 0 1 31.64 211.86&#10;  Q 31.67 155.11 31.63 89.81&#10;  Q 31.63 89.46 31.97 89.37&#10;  Q 32.17 89.32 32.44 89.47&#10;  Z"/>
<path fill="#0779e2" d="&#10;  M 267.35 90.88&#10;  Q 268.02 91.86 268.02 93.25&#10;  Q 268.11 151.44 268.11 209.62&#10;  Q 268.11 210.59 267.83 211.43&#10;  L 174.05 151.76&#10;  A 0.47 0.47 0.0 0 1 174.06 150.96&#10;  Q 179.49 147.65 184.91 143.92&#10;  Q 225.44 116.06 267.35 90.88&#10;  Z"/>
<path fill="#0779e2" d="&#10;  M 105.45 213.73&#10;  Q 107.79 215.93 110.44 217.81&#10;  Q 117.71 222.94 125.56 228.22&#10;  L 125.23 245.89&#10;  Q 115.14 252.54 105.20 259.41&#10;  Q 104.93 259.59 104.61 259.36&#10;  L 105.00 214.13&#10;  A 0.37 0.35 67.3 0 1 105.09 213.89&#10;  Q 105.27 213.70 105.45 213.73&#10;  Z"/>
</svg>