<?xml version="1.0" encoding="UTF-8"?>
<svg xmlns="http://www.w3.org/2000/svg" version="1.1" viewBox="0.00 0.00 300.00 300.00" width="300.00" height="300.00">
<defs>
  <clipPath id="roundedCorners">
    <rect x="0" y="0" width="300" height="300" rx="60" ry="60" />
  </clipPath>
</defs>
<g clip-path="url(#roundedCorners)">
  <!-- 圆角背景（深色） -->
  <rect x="0" y="0" width="300" height="300" fill="#0f172a" rx="60" ry="60" />
  
  <g stroke-width="2.00" fill="none" stroke-linecap="butt">
<path stroke="#afeffe" d="
  M 149.48 15.06
  Q 138.48 22.04 127.68 29.42
  Q 124.92 31.31 124.98 35.50
  Q 125.51 70.09 125.39 150.08"/>
<path stroke="#83ddfd" d="
  M 125.39 150.08
  L 125.56 228.22"/>
<path stroke="#83bcf1" d="
  M 125.56 228.22
  Q 117.71 222.94 110.44 217.81
  Q 107.79 215.93 105.45 213.73"/>
<path stroke="#83ddfd" d="
  M 105.45 213.73
  C 104.28 211.82 104.65 206.59 104.65 204.25
  Q 104.77 170.70 104.85 137.87"/>
<path stroke="#afeffe" d="
  M 104.85 137.87
  Q 105.00 110.07 105.03 83.00
  Q 105.06 64.24 104.57 45.50
  A 0.95 0.95 0.0 0 0 103.10 44.73
  C 82.78 57.98 63.33 70.74 39.05 85.44
  C 37.46 86.40 34.46 87.74 32.44 89.47"/>
<path stroke="#83ddfd" d="
  M 32.44 89.47
  Q 32.17 89.32 31.97 89.37
  Q 31.63 89.46 31.63 89.81
  Q 31.67 155.11 31.64 211.86
  A 0.91 0.88 -74.3 0 0 32.05 212.62
  L 104.61 259.36"/>
<path stroke="#83bcf1" d="
  M 104.61 259.36
  Q 104.93 259.59 105.20 259.41
  Q 115.14 252.54 125.23 245.89"/>
<path stroke="#83ddfd" d="
  M 125.23 245.89
  Q 125.32 246.01 125.39 246.10
  A 0.79 0.71 29.9 0 1 125.53 246.53
  L 125.92 273.90
  A 3.39 3.38 -74.1 0 0 127.47 276.69
  L 148.54 290.28
  A 2.48 2.48 0.0 0 0 151.14 290.34
  Q 153.08 289.21 156.21 287.19
  Q 169.63 278.56 198.55 258.62
  C 222.52 242.09 241.64 229.35 267.24 212.24
  Q 267.50 212.07 267.83 211.43"/>
<path stroke="#83bcf1" d="
  M 267.83 211.43
  Q 268.11 210.59 268.11 209.62
  Q 268.11 151.44 268.02 93.25
  Q 268.02 91.86 267.35 90.88"/>
<path stroke="#83ddfd" d="
  M 267.35 90.88
  Q 209.37 53.05 150.73 15.04
  Q 149.77 14.42 149.48 15.06"/>
<path stroke="#079aef" d="
  M 267.35 90.88
  Q 225.44 116.06 184.91 143.92
  Q 179.49 147.65 174.06 150.96
  A 0.47 0.47 0.0 0 0 174.05 151.76
  L 267.83 211.43"/>
<path stroke="#079aef" d="
  M 125.23 245.89
  L 125.56 228.22"/>
<path stroke="#32cdfc" d="
  M 125.39 150.08
  L 148.95 165.43
  A 0.88 0.88 0.0 0 1 149.35 166.17
  L 149.35 288.23
  A 0.14 0.13 90.0 0 0 149.48 288.37
  L 149.80 288.37
  A 0.41 0.41 0.0 0 0 150.21 287.96
  L 150.21 166.36
  A 0.85 0.83 -16.5 0 1 150.61 165.65
  L 173.17 151.89
  A 0.54 0.54 0.0 0 0 173.19 150.98
  L 151.12 136.09
  A 2.57 2.57 0.0 0 1 149.99 134.00
  Q 149.84 121.05 149.78 65.20
  C 149.76 51.28 150.17 32.65 149.86 16.38
  Q 149.84 15.62 149.48 15.06"/>
<path stroke="#079aef" d="
  M 105.45 213.73
  Q 105.27 213.70 105.09 213.89
  A 0.37 0.35 67.3 0 0 105.00 214.13
  L 104.61 259.36"/>
<path stroke="#32cdfc" d="
  M 104.85 137.87
  L 32.44 89.47"/>
</g>
<path fill="#0f172a" d="
  M 300.00 0.00
  L 300.00 300.00
  L 0.00 300.00
  L 0.00 0.00
  L 300.00 0.00
  Z
  M 149.48 15.06
  Q 138.48 22.04 127.68 29.42
  Q 124.92 31.31 124.98 35.50
  Q 125.51 70.09 125.39 150.08
  L 125.56 228.22
  Q 117.71 222.94 110.44 217.81
  Q 107.79 215.93 105.45 213.73
  C 104.28 211.82 104.65 206.59 104.65 204.25
  Q 104.77 170.70 104.85 137.87
  Q 105.00 110.07 105.03 83.00
  Q 105.06 64.24 104.57 45.50
  A 0.95 0.95 0.0 0 0 103.10 44.73
  C 82.78 57.98 63.33 70.74 39.05 85.44
  C 37.46 86.40 34.46 87.74 32.44 89.47
  Q 32.17 89.32 31.97 89.37
  Q 31.63 89.46 31.63 89.81
  Q 31.67 155.11 31.64 211.86
  A 0.91 0.88 -74.3 0 0 32.05 212.62
  L 104.61 259.36
  Q 104.93 259.59 105.20 259.41
  Q 115.14 252.54 125.23 245.89
  Q 125.32 246.01 125.39 246.10
  A 0.79 0.71 29.9 0 1 125.53 246.53
  L 125.92 273.90
  A 3.39 3.38 -74.1 0 0 127.47 276.69
  L 148.54 290.28
  A 2.48 2.48 0.0 0 0 151.14 290.34
  Q 153.08 289.21 156.21 287.19
  Q 169.63 278.56 198.55 258.62
  C 222.52 242.09 241.64 229.35 267.24 212.24
  Q 267.50 212.07 267.83 211.43
  Q 268.11 210.59 268.11 209.62
  Q 268.11 151.44 268.02 93.25
  Q 268.02 91.86 267.35 90.88
  Q 209.37 53.05 150.73 15.04
  Q 149.77 14.42 149.48 15.06
  Z"/>
<path fill="#06bafb" d="
  M 267.35 90.88
  Q 225.44 116.06 184.91 143.92
  Q 179.49 147.65 174.06 150.96
  A 0.47 0.47 0.0 0 0 174.05 151.76
  L 267.83 211.43
  Q 267.50 212.07 267.24 212.24
  C 241.64 229.35 222.52 242.09 198.55 258.62
  Q 169.63 278.56 156.21 287.19
  Q 153.08 289.21 151.14 290.34
  A 2.48 2.48 0.0 0 1 148.54 290.28
  L 127.47 276.69
  A 3.39 3.38 -74.1 0 1 125.92 273.90
  L 125.53 246.53
  A 0.79 0.71 29.9 0 0 125.39 246.10
  Q 125.32 246.01 125.23 245.89
  L 125.56 228.22
  L 125.39 150.08
  L 148.95 165.43
  A 0.88 0.88 0.0 0 1 149.35 166.17
  L 149.35 288.23
  A 0.14 0.13 90.0 0 0 149.48 288.37
  L 149.80 288.37
  A 0.41 0.41 0.0 0 0 150.21 287.96
  L 150.21 166.36
  A 0.85 0.83 -16.5 0 1 150.61 165.65
  L 173.17 151.89
  A 0.54 0.54 0.0 0 0 173.19 150.98
  L 151.12 136.09
  A 2.57 2.57 0.0 0 1 149.99 134.00
  Q 149.84 121.05 149.78 65.20
  C 149.76 51.28 150.17 32.65 149.86 16.38
  Q 149.84 15.62 149.48 15.06
  Q 149.77 14.42 150.73 15.04
  Q 209.37 53.05 267.35 90.88
  Z"/>
<path fill="#5edffc" d="
  M 149.48 15.06
  Q 149.84 15.62 149.86 16.38
  C 150.17 32.65 149.76 51.28 149.78 65.20
  Q 149.84 121.05 149.99 134.00
  A 2.57 2.57 0.0 0 0 151.12 136.09
  L 173.19 150.98
  A 0.54 0.54 0.0 0 1 173.17 151.89
  L 150.61 165.65
  A 0.85 0.83 -16.5 0 0 150.21 166.36
  L 150.21 287.96
  A 0.41 0.41 0.0 0 1 149.80 288.37
  L 149.48 288.37
  A 0.14 0.13 -90.0 0 1 149.35 288.23
  L 149.35 166.17
  A 0.88 0.88 0.0 0 0 148.95 165.43
  L 125.39 150.08
  Q 125.51 70.09 124.98 35.50
  Q 124.92 31.31 127.68 29.42
  Q 138.48 22.04 149.48 15.06
  Z"/>
<path fill="#5edffc" d="
  M 104.85 137.87
  L 32.44 89.47
  C 34.46 87.74 37.46 86.40 39.05 85.44
  C 63.33 70.74 82.78 57.98 103.10 44.73
  A 0.95 0.95 0.0 0 1 104.57 45.50
  Q 105.06 64.24 105.03 83.00
  Q 105.00 110.07 104.85 137.87
  Z"/>
<path fill="#06bafb" d="
  M 32.44 89.47
  L 104.85 137.87
  Q 104.77 170.70 104.65 204.25
  C 104.65 206.59 104.28 211.82 105.45 213.73
  Q 105.27 213.70 105.09 213.89
  A 0.37 0.35 67.3 0 0 105.00 214.13
  L 104.61 259.36
  L 32.05 212.62
  A 0.91 0.88 -74.3 0 1 31.64 211.86
  Q 31.67 155.11 31.63 89.81
  Q 31.63 89.46 31.97 89.37
  Q 32.17 89.32 32.44 89.47
  Z"/>
<path fill="#0779e2" d="
  M 267.35 90.88
  Q 268.02 91.86 268.02 93.25
  Q 268.11 151.44 268.11 209.62
  Q 268.11 210.59 267.83 211.43
  L 174.05 151.76
  A 0.47 0.47 0.0 0 1 174.06 150.96
  Q 179.49 147.65 184.91 143.92
  Q 225.44 116.06 267.35 90.88
  Z"/>
<path fill="#0779e2" d="
  M 105.45 213.73
  Q 107.79 215.93 110.44 217.81
  Q 117.71 222.94 125.56 228.22
  L 125.23 245.89
  Q 115.14 252.54 105.20 259.41
  Q 104.93 259.59 104.61 259.36
  L 105.00 214.13
  A 0.37 0.35 67.3 0 1 105.09 213.89
  Q 105.27 213.70 105.45 213.73
  Z"/>
</g>
</svg>
